<svg width="241" height="36" viewBox="0 0 241 36" fill="none" xmlns="http://www.w3.org/2000/svg">
<path d="M15.6688 0L0.251633 8.81506L0 8.95656V26.8965L8.45995 31.7331V13.82L15.6635 9.69997L22.867 13.82V22.0403L15.6635 26.1603L12.8831 24.5714V26.9002L15.6635 28.489L24.8783 23.2136V12.6449L15.6635 7.36946L6.44864 12.6449V28.2526L2.02905 25.7232V10.1388L15.6741 2.33587L29.3192 10.1388V13.9221H31.3394V8.96195L15.6688 0Z" fill="#2664D3"/>
<path d="M29.1739 19.545V25.6355L15.6617 33.3633L12.7502 31.6991V34.3359L15.6617 36L31.4563 26.9665V19.5361L29.1739 19.545Z" fill="#636361"/>
<path d="M55.0499 25.9669C53.7355 25.2394 52.6498 24.1532 51.9168 22.8321C51.1711 21.4382 50.7806 19.8785 50.7806 18.2938C50.7806 16.7091 51.1711 15.1494 51.9168 13.7555C52.6539 12.4417 53.7389 11.3617 55.0499 10.6368C56.4401 9.87851 57.9998 9.49424 59.5793 9.52085C60.9433 9.49704 62.294 9.79511 63.524 10.3914C64.6623 10.9536 65.6151 11.8371 66.2671 12.9351L64.5465 14.1156C64.0168 13.2918 63.2765 12.6282 62.404 12.1952C61.5236 11.7654 60.557 11.5466 59.5793 11.5558C58.4169 11.5377 57.27 11.8261 56.2513 12.3923C55.2728 12.9452 54.4729 13.7718 53.9476 14.7729C53.4032 15.865 53.1197 17.0709 53.1197 18.2938C53.1197 19.5167 53.4032 20.7225 53.9476 21.8146C54.4767 22.8083 55.2761 23.6282 56.2513 24.1773C57.2697 24.7445 58.4167 25.0335 59.5793 25.0157C60.5552 25.0247 61.5206 24.8117 62.404 24.3923C63.2781 23.9693 64.0196 23.3103 64.5465 22.4881L66.2671 23.6704C65.6119 24.7716 64.653 25.6557 63.508 26.2141C62.2822 26.8059 60.9376 27.1032 59.5793 27.0828C57.9998 27.11 56.4399 26.7257 55.0499 25.9669Z" fill="#2664D3"/>
<path d="M73.0242 25.9455C71.721 25.2084 70.6428 24.1242 69.907 22.8107C69.1612 21.4197 68.7705 19.8626 68.7705 18.2805C68.7705 16.6983 69.1612 15.1412 69.907 13.7503C70.6411 12.4396 71.7201 11.3601 73.0242 10.6316C74.395 9.89874 75.9222 9.51562 77.473 9.51562C79.0237 9.51562 80.551 9.89874 81.9218 10.6316C83.2235 11.3578 84.2979 12.4382 85.0229 13.7503C85.7581 15.1446 86.1427 16.7004 86.1427 18.2805C86.1427 19.8605 85.7581 21.4163 85.0229 22.8107C84.2961 24.1256 83.2226 25.2108 81.9218 25.9455C80.5543 26.689 79.0257 27.0782 77.473 27.0782C75.9202 27.0782 74.3917 26.689 73.0242 25.9455ZM80.7363 24.1739C81.6985 23.6162 82.4816 22.7904 82.9921 21.795C83.5259 20.7027 83.8036 19.5007 83.8036 18.2823C83.8036 17.0639 83.5259 15.8619 82.9921 14.7695C82.4816 13.7737 81.6985 12.9472 80.7363 12.3888C79.7342 11.8403 78.6126 11.553 77.473 11.553C76.3334 11.553 75.2118 11.8403 74.2097 12.3888C73.2444 12.9491 72.456 13.7746 71.9361 14.7695C71.3917 15.8587 71.1082 17.062 71.1082 18.2823C71.1082 19.5026 71.3917 20.7058 71.9361 21.795C72.456 22.7895 73.2444 23.6144 74.2097 24.1739C75.2115 24.7234 76.3332 25.0112 77.473 25.0112C78.6128 25.0112 79.7345 24.7234 80.7363 24.1739Z" fill="#2664D3"/>
<path d="M106.437 2.56152V26.9234H104.229V23.5091C103.573 24.634 102.623 25.5544 101.484 26.1693C100.297 26.7945 98.9747 27.1103 97.6366 27.0882C96.1141 27.1091 94.613 26.7242 93.2844 25.9722C91.9981 25.2418 90.9402 24.1613 90.2311 22.8535C89.5058 21.4444 89.1271 19.8794 89.1271 18.291C89.1271 16.7026 89.5058 15.1376 90.2311 13.7286C90.9383 12.4234 91.997 11.3477 93.2844 10.626C94.6164 9.88458 96.1161 9.50556 97.6366 9.52615C98.9383 9.50665 100.225 9.8053 101.388 10.3967C102.51 10.9832 103.457 11.8612 104.131 12.9404V2.56691L106.437 2.56152ZM101.059 24.1773C102.024 23.6177 102.812 22.7928 103.332 21.7984C103.876 20.7092 104.16 19.506 104.16 18.2857C104.16 17.0654 103.876 15.8622 103.332 14.7729C102.812 13.7781 102.024 12.9526 101.059 12.3923C100.074 11.8288 98.9592 11.5401 97.828 11.5557C96.6859 11.5373 95.5594 11.826 94.5638 12.3923C93.5986 12.9526 92.8103 13.7781 92.2903 14.7729C91.7461 15.8622 91.4625 17.0654 91.4625 18.2857C91.4625 19.506 91.7461 20.7092 92.2903 21.7984C92.8103 22.7928 93.5987 23.6176 94.5638 24.1773C95.5598 24.727 96.6764 25.015 97.8112 25.015C98.946 25.015 100.063 24.727 101.059 24.1773Z" fill="#2664D3"/>
<path d="M127.739 19.0077H113.451C113.486 19.8342 113.685 20.6451 114.036 21.3923C114.388 22.1395 114.884 22.8076 115.496 23.357C116.793 24.4848 118.463 25.0765 120.172 25.014C121.175 25.0251 122.169 24.8294 123.094 24.439C123.978 24.0575 124.766 23.4795 125.398 22.748L126.697 24.258C125.935 25.181 124.962 25.9023 123.862 26.3593C122.671 26.8492 121.396 27.0929 120.11 27.0758C118.486 27.1083 116.882 26.7185 115.45 25.9437C114.125 25.2182 113.028 24.1323 112.283 22.8089C111.514 21.4279 111.122 19.865 111.147 18.2804C111.121 16.7012 111.496 15.1416 112.235 13.7502C112.926 12.4511 113.961 11.3714 115.223 10.6315C116.527 9.89969 117.993 9.51562 119.485 9.51562C120.976 9.51562 122.443 9.89969 123.747 10.6315C124.996 11.3702 126.018 12.444 126.701 13.7341C127.43 15.1341 127.796 16.6984 127.764 18.2804L127.739 19.0077ZM115.35 13.1161C114.221 14.2079 113.542 15.6914 113.451 17.2683H125.563C125.471 15.6914 124.792 14.208 123.663 13.1161C122.516 12.0905 121.038 11.5244 119.507 11.5244C117.976 11.5244 116.497 12.0905 115.35 13.1161Z" fill="#2664D3"/>
<path d="M130.452 26.4367C130.25 26.2295 130.091 25.9834 129.985 25.7129C129.878 25.4424 129.827 25.1531 129.834 24.8621C129.826 24.5743 129.878 24.288 129.984 24.0208C130.09 23.7537 130.25 23.5115 130.452 23.309C130.646 23.1071 130.879 22.9474 131.137 22.8399C131.394 22.7324 131.671 22.6793 131.95 22.6839C132.231 22.6806 132.51 22.7343 132.77 22.8416C133.031 22.949 133.268 23.1079 133.466 23.309C133.674 23.5087 133.838 23.75 133.948 24.0175C134.058 24.2849 134.111 24.5726 134.104 24.8621C134.11 25.1546 134.056 25.4452 133.946 25.7159C133.836 25.9867 133.673 26.2319 133.466 26.4367C133.271 26.6431 133.035 26.8068 132.774 26.9177C132.513 27.0286 132.233 27.0844 131.95 27.0816C131.669 27.0858 131.391 27.0306 131.133 26.9195C130.875 26.8085 130.643 26.644 130.452 26.4367Z" fill="#2664D3"/>
<path d="M152.515 10.6207C153.802 11.3424 154.861 12.4181 155.568 13.7233C156.293 15.1381 156.672 16.7083 156.672 18.3019C156.672 19.8954 156.293 21.4656 155.568 22.8805C154.864 24.1826 153.811 25.2579 152.531 25.9831C151.195 26.729 149.688 27.1081 148.162 27.0829C146.861 27.1025 145.575 26.8045 144.413 26.2141C143.291 25.6278 142.344 24.7497 141.669 23.6705V33.2898H139.366V9.6445H141.574V13.0587C142.238 11.9491 143.186 11.0417 144.319 10.4327C145.506 9.80791 146.828 9.49208 148.166 9.51374C149.686 9.49604 151.184 9.87746 152.515 10.6207ZM151.248 24.1774C152.22 23.6217 153.014 22.7962 153.537 21.7985C154.102 20.7169 154.386 19.5085 154.365 18.2857C154.388 17.068 154.103 15.8645 153.537 14.7891C153.008 13.7961 152.215 12.9721 151.248 12.4102C150.252 11.8504 149.131 11.5566 147.992 11.5566C146.853 11.5566 145.733 11.8504 144.737 12.4102C143.776 12.976 142.99 13.7993 142.463 14.7891C141.897 15.8643 141.612 17.068 141.636 18.2857C141.614 19.5085 141.898 20.717 142.463 21.7985C142.983 22.7931 143.772 23.618 144.737 24.1774C145.736 24.7269 146.855 25.0148 147.992 25.0148C149.129 25.0148 150.249 24.7269 151.248 24.1774Z" fill="#636361"/>
<path d="M166.007 10.4079C167.239 9.77956 168.607 9.47464 169.986 9.52124V11.7944L169.435 11.7604C168.653 11.7172 167.872 11.8444 167.144 12.1334C166.415 12.4224 165.757 12.8664 165.213 13.4353C164.129 14.7445 163.583 16.4243 163.688 18.1285V26.9256H161.384V9.64484H163.592V13.0268C164.095 11.9123 164.943 10.9931 166.007 10.4079Z" fill="#636361"/>
<path d="M188.851 19.0077H174.563C174.598 19.8342 174.797 20.6451 175.148 21.3923C175.5 22.1395 175.996 22.8076 176.608 23.357C177.905 24.4848 179.575 25.0765 181.285 25.014C182.287 25.0251 183.281 24.8294 184.207 24.439C185.091 24.0574 185.878 23.4795 186.51 22.748L187.809 24.258C187.047 25.1809 186.074 25.9021 184.974 26.3592C183.784 26.8491 182.509 27.0927 181.224 27.0758C179.6 27.1084 177.996 26.7186 176.564 25.9437C175.239 25.2183 174.142 24.1323 173.397 22.8089C172.628 21.428 172.236 19.865 172.261 18.2804C172.235 16.7012 172.61 15.1416 173.349 13.7502C174.04 12.451 175.075 11.3714 176.337 10.6315C177.641 9.89969 179.107 9.51562 180.599 9.51562C182.09 9.51562 183.557 9.89969 184.861 10.6315C186.11 11.37 187.133 12.4439 187.816 13.7341C188.546 15.1341 188.912 16.6984 188.88 18.2804L188.851 19.0077ZM176.463 13.1161C175.333 14.2078 174.655 15.6913 174.563 17.2683H186.675C186.584 15.6914 185.905 14.2079 184.776 13.1161C183.629 12.0902 182.15 11.5238 180.619 11.5238C179.088 11.5238 177.609 12.0902 176.463 13.1161Z" fill="#636361"/>
<path d="M194.192 26.4832C193.113 26.1763 192.104 25.6577 191.222 24.9569L192.261 23.119C193.072 23.7392 193.984 24.2115 194.956 24.5145C196.046 24.8751 197.187 25.0565 198.334 25.0519C199.532 25.136 200.73 24.8805 201.793 24.3139C202.146 24.098 202.435 23.7911 202.632 23.4247C202.829 23.0583 202.926 22.6455 202.913 22.2288C202.927 21.949 202.879 21.6696 202.772 21.4111C202.666 21.1526 202.503 20.9215 202.296 20.7348C201.841 20.3509 201.309 20.0711 200.737 19.9144C199.914 19.6871 199.079 19.5077 198.236 19.377C197.106 19.1766 195.989 18.908 194.891 18.5727C194.062 18.3088 193.317 17.8273 192.732 17.1773C192.103 16.417 191.786 15.442 191.846 14.4527C191.837 13.7596 191.995 13.0746 192.306 12.457C192.617 11.8393 193.072 11.3076 193.632 10.9077C195.092 9.90948 196.835 9.42476 198.594 9.52839C199.713 9.53056 200.826 9.67987 201.906 9.97261C202.872 10.2083 203.793 10.6016 204.634 11.137L203.627 13.0089C202.142 12.0005 200.383 11.484 198.594 11.531C197.432 11.4522 196.273 11.7267 195.266 12.3192C194.92 12.5382 194.636 12.8433 194.44 13.2052C194.244 13.5671 194.143 13.9738 194.146 14.3864C194.134 14.6797 194.183 14.9723 194.293 15.2444C194.402 15.5164 194.568 15.7614 194.779 15.9627C195.23 16.3726 195.769 16.6701 196.354 16.8316C197.21 17.0687 198.077 17.26 198.952 17.4048C200.059 17.6052 201.155 17.8683 202.232 18.1929C203.04 18.4466 203.768 18.9105 204.343 19.5382C204.961 20.2657 205.275 21.2071 205.22 22.1643C205.237 22.8746 205.074 23.5776 204.747 24.2067C204.421 24.8358 203.941 25.3703 203.352 25.7595C201.802 26.7297 199.993 27.1937 198.173 27.0886C196.823 27.0952 195.48 26.891 194.192 26.4832Z" fill="#636361"/>
<path d="M210.072 26.4832C208.992 26.1764 207.982 25.6578 207.1 24.9569L208.14 23.119C208.952 23.7393 209.864 24.2115 210.836 24.5145C211.926 24.8751 213.066 25.0565 214.213 25.0519C215.412 25.1361 216.61 24.8805 217.673 24.3139C218.025 24.098 218.315 23.7911 218.512 23.4247C218.709 23.0583 218.806 22.6455 218.792 22.2288C218.807 21.949 218.758 21.6696 218.652 21.4111C218.545 21.1526 218.382 20.9215 218.176 20.7348C217.721 20.3508 217.189 20.0709 216.616 19.9144C215.794 19.6871 214.959 19.5077 214.116 19.377C212.986 19.1767 211.869 18.9081 210.77 18.5727C209.941 18.3091 209.195 17.8276 208.61 17.1773C207.981 16.417 207.664 15.442 207.724 14.4527C207.715 13.7596 207.873 13.0747 208.184 12.4571C208.495 11.8395 208.95 11.3077 209.51 10.9077C210.969 9.90948 212.713 9.42476 214.472 9.52839C215.59 9.53056 216.704 9.67987 217.784 9.97261C218.75 10.2084 219.671 10.6016 220.511 11.137L219.505 13.0089C218.019 12.0003 216.26 11.4838 214.47 11.531C213.308 11.4529 212.149 11.7273 211.142 12.3192C210.796 12.5381 210.512 12.8431 210.315 13.205C210.119 13.567 210.018 13.9737 210.022 14.3864C210.009 14.6797 210.059 14.9724 210.168 15.2444C210.278 15.5165 210.444 15.7615 210.655 15.9627C211.106 16.3726 211.645 16.6702 212.23 16.8316C213.086 17.0687 213.953 17.2601 214.828 17.4048C215.935 17.6052 217.03 17.8683 218.108 18.1929C218.916 18.4468 219.644 18.9107 220.219 19.5382C220.837 20.2657 221.151 21.2071 221.096 22.1643C221.113 22.8745 220.951 23.5774 220.624 24.2065C220.298 24.8355 219.818 25.3701 219.23 25.7595C217.679 26.7296 215.871 27.1936 214.05 27.0886C212.701 27.0951 211.359 26.8909 210.072 26.4832Z" fill="#636361"/>
<path d="M227.882 25.9455C226.578 25.2089 225.5 24.1245 224.764 22.8107C224.018 21.4197 223.628 19.8626 223.628 18.2805C223.628 16.6983 224.018 15.1412 224.764 13.7503C225.498 12.4395 226.577 11.36 227.882 10.6316C229.252 9.89874 230.78 9.51562 232.33 9.51562C233.881 9.51562 235.408 9.89874 236.779 10.6316C238.081 11.3578 239.155 12.4382 239.88 13.7503C240.615 15.1446 241 16.7004 241 18.2805C241 19.8605 240.615 21.4163 239.88 22.8107C239.153 24.1255 238.08 25.2107 236.779 25.9455C235.412 26.689 233.883 27.0782 232.33 27.0782C230.778 27.0782 229.249 26.689 227.882 25.9455ZM235.594 24.1739C236.556 23.6162 237.339 22.7904 237.849 21.795C238.383 20.7027 238.661 19.5007 238.661 18.2823C238.661 17.0639 238.383 15.8619 237.849 14.7695C237.339 13.7737 236.556 12.9472 235.594 12.3888C234.592 11.8403 233.47 11.553 232.33 11.553C231.191 11.553 230.069 11.8403 229.067 12.3888C228.102 12.9492 227.313 13.7747 226.793 14.7695C226.249 15.8588 225.966 17.062 225.966 18.2823C225.966 19.5026 226.249 20.7058 226.793 21.795C227.313 22.7894 228.102 23.6143 229.067 24.1739C230.069 24.7234 231.191 25.0112 232.33 25.0112C233.47 25.0112 234.592 24.7234 235.594 24.1739Z" fill="#636361"/>
</svg>
