<?xml version="1.0" encoding="utf-8"?>
<!-- Generator: Adobe Illustrator 16.0.0, SVG Export Plug-In . SVG Version: 6.00 Build 0)  -->
<!DOCTYPE svg PUBLIC "-//W3C//DTD SVG 1.1//EN" "http://www.w3.org/Graphics/SVG/1.1/DTD/svg11.dtd">
<svg version="1.1" id="Layer_1" xmlns="http://www.w3.org/2000/svg" xmlns:xlink="http://www.w3.org/1999/xlink" x="0px" y="0px"
	 width="230px" height="100px" viewBox="0 0 230 100" enable-background="new 0 0 230 100" xml:space="preserve">
<polygon fill="#FFFFFF" points="6.212,58.621 13.01,62.469 13.01,46.851 20.011,42.892 27.009,46.852 27.009,54.771 20.011,58.729 
	17.931,57.553 17.931,58.623 20.011,59.801 27.951,55.306 27.951,46.314 20.011,41.822 12.069,46.314 12.069,60.865 7.153,58.083 
	7.153,43.538 20.011,36.262 32.868,43.538 32.868,46.755 33.809,46.755 33.809,43.001 20.011,35.194 6.212,43.001 "/>
<path fill="#FFFFFF" d="M13.294,62.954l-7.366-4.169V42.836l0.145-0.081l13.938-7.888l14.081,7.969v4.203h-1.509v-3.335
	l-12.572-7.115L7.437,43.704v14.217l4.349,2.457V46.149l8.226-4.652l8.224,4.652v9.322l-8.224,4.655l-2.364-1.338v-1.722
	l2.364,1.336l6.715-3.799v-7.587l-6.715-3.8l-6.717,3.799V62.954z M6.495,58.455l6.233,3.525V46.685l7.283-4.118l7.282,4.12v8.25
	l-7.282,4.118l-1.797-1.014v0.416l1.797,1.018l7.657-4.335V46.48l-7.657-4.332l-7.659,4.332v14.87L6.87,58.249V43.373l0.145-0.082
	l12.997-7.353l13.14,7.435v3.098h0.374v-3.304l-13.514-7.648L6.495,43.167V58.455z"/>
<path fill="#FFFFFF" d="M13.175,62.75l-7.126-4.033V42.905l0.083-0.046l13.879-7.854l13.962,7.899v4.015h-1.27v-3.286l-12.692-7.182
	L7.317,43.633v14.355l4.587,2.595V46.22l8.106-4.585l8.105,4.585v9.184l-8.105,4.586l-2.246-1.271v-1.446l2.246,1.271l6.835-3.87
	v-7.725l-6.835-3.868l-6.836,3.868V62.75z M6.375,58.523l6.471,3.663V46.757l7.164-4.055l7.163,4.055v8.108l-7.163,4.052
	l-1.917-1.083v0.691l1.917,1.085l7.777-4.399v-8.799l-7.777-4.401l-7.777,4.401v14.735L6.99,58.178V43.442l13.021-7.368
	l13.021,7.368v3.149h0.614v-3.495l-13.635-7.715L6.375,43.097V58.523z"/>
<path fill="#FFFFFF" d="M13.459,63.235l-7.696-4.353V42.739l0.228-0.128l14.018-7.932l14.247,8.062v4.461h-1.837v-3.404
	L20.01,36.776L7.601,43.797v14.025l4.021,2.274V46.055l8.388-4.746l8.39,4.746v9.513l-8.39,4.745l-2.527-1.428v-2.1l2.527,1.43
	l6.553-3.706v-7.396l-6.553-3.707l-6.55,3.707V63.235z M6.659,58.36l5.904,3.34V46.591l7.446-4.213l7.448,4.213v8.438l-7.448,4.216
	l-1.631-0.925v0.042l1.631,0.925l7.494-4.24v-8.472l-7.494-4.238l-7.493,4.238v15.058l-5.811-3.289V43.278l0.146-0.081l13.158-7.448
	l13.305,7.529v3.03h0.046v-3.045L20.01,35.708L6.659,43.263V58.36z"/>
<polygon fill="#FFFFFF" points="17.931,65.25 20.01,66.429 33.81,58.621 33.81,52.831 32.868,52.831 32.868,58.083 20.01,65.358 
	17.931,64.181 "/>
<polygon fill="#FFFFFF" points="20.011,67.08 17.364,65.582 17.364,63.209 20.011,64.706 32.302,57.753 32.302,52.267 
	34.376,52.267 34.376,58.953 "/>
<path fill="#FFFFFF" d="M20.011,66.617l-2.245-1.271V63.9l2.245,1.271l12.693-7.181v-5.321h1.27v6.048l-0.083,0.046L20.011,66.617z
	 M18.094,65.156l1.917,1.084l13.635-7.717v-5.526h-0.614v5.183l-13.021,7.369l-1.917-1.087V65.156z"/>
<path fill="#FFFFFF" d="M20.011,66.942l-2.529-1.43v-2.097l2.529,1.429l12.409-7.021v-5.44h1.837v6.499l-0.229,0.127L20.011,66.942z
	 M18.378,64.99l1.633,0.924l13.35-7.554v-5.08h-0.046v5.063l-0.144,0.082l-13.16,7.446l-1.633-0.923V64.99z"/>
<g>
	<defs>
		<rect id="SVGID_1_" x="-58" y="-34" width="347" height="168.079"/>
	</defs>
	<clipPath id="SVGID_2_">
		<use xlink:href="#SVGID_1_"  overflow="visible"/>
	</clipPath>
	<path clip-path="url(#SVGID_2_)" fill="#FFFFFF" d="M55.836,58.045c-1.21-0.67-2.161-1.61-2.85-2.822
		c-0.689-1.209-1.033-2.575-1.033-4.089c0-1.517,0.344-2.875,1.033-4.078c0.689-1.2,1.64-2.135,2.85-2.806
		c1.211-0.669,2.585-1.004,4.12-1.004c1.339,0,2.536,0.261,3.589,0.783c1.052,0.522,1.884,1.285,2.494,2.289l-1.564,1.064
		c-0.512-0.769-1.161-1.344-1.95-1.729c-0.788-0.383-1.643-0.575-2.569-0.575c-1.124,0-2.132,0.252-3.027,0.754
		c-0.897,0.502-1.595,1.215-2.096,2.142c-0.502,0.926-0.754,1.978-0.754,3.161c0,1.202,0.251,2.258,0.754,3.174
		c0.501,0.915,1.199,1.623,2.096,2.127c0.896,0.502,1.904,0.754,3.027,0.754c0.926,0,1.782-0.188,2.569-0.563
		c0.789-0.373,1.438-0.945,1.95-1.713l1.564,1.063c-0.61,1.004-1.446,1.768-2.509,2.291c-1.063,0.521-2.255,0.782-3.574,0.782
		C58.421,59.049,57.047,58.715,55.836,58.045"/>
	<path clip-path="url(#SVGID_2_)" fill="#FFFFFF" d="M72.185,58.028c-1.202-0.679-2.147-1.617-2.837-2.819
		c-0.689-1.202-1.033-2.56-1.033-4.075c0-1.517,0.344-2.875,1.033-4.078c0.69-1.2,1.635-2.135,2.837-2.806
		c1.201-0.668,2.549-1.004,4.045-1.004c1.497,0,2.845,0.336,4.047,1.004c1.2,0.671,2.14,1.605,2.821,2.806
		c0.679,1.203,1.018,2.561,1.018,4.078c0,1.516-0.339,2.873-1.018,4.075c-0.681,1.202-1.621,2.141-2.821,2.819
		c-1.202,0.681-2.55,1.021-4.047,1.021C74.734,59.049,73.385,58.709,72.185,58.028 M79.199,56.435
		c0.875-0.504,1.559-1.216,2.052-2.143c0.492-0.923,0.738-1.979,0.738-3.158c0-1.183-0.246-2.235-0.738-3.162
		c-0.493-0.926-1.177-1.639-2.052-2.141c-0.877-0.503-1.866-0.754-2.97-0.754c-1.103,0-2.092,0.251-2.968,0.754
		c-0.876,0.502-1.565,1.215-2.067,2.141c-0.501,0.927-0.753,1.979-0.753,3.162c0,1.18,0.252,2.235,0.753,3.158
		c0.502,0.927,1.191,1.639,2.067,2.143c0.876,0.502,1.865,0.754,2.968,0.754C77.333,57.188,78.322,56.937,79.199,56.435"/>
	<path clip-path="url(#SVGID_2_)" fill="#FFFFFF" d="M102.576,36.985V58.9h-2.008v-3.071c-0.63,1.044-1.462,1.841-2.497,2.392
		c-1.034,0.552-2.2,0.828-3.5,0.828c-1.457,0-2.776-0.334-3.958-1.004c-1.182-0.67-2.107-1.605-2.777-2.806
		c-0.667-1.2-1.003-2.568-1.003-4.105c0-1.537,0.336-2.906,1.003-4.107c0.67-1.199,1.595-2.13,2.777-2.792
		c1.182-0.659,2.501-0.989,3.958-0.989c1.259,0,2.397,0.261,3.412,0.783c1.014,0.522,1.846,1.285,2.496,2.289v-9.333H102.576z
		 M97.687,56.435c0.876-0.504,1.566-1.216,2.068-2.143c0.502-0.923,0.753-1.979,0.753-3.158c0-1.183-0.25-2.235-0.753-3.162
		c-0.502-0.926-1.191-1.639-2.068-2.141c-0.876-0.503-1.856-0.754-2.938-0.754c-1.104,0-2.092,0.251-2.968,0.754
		c-0.876,0.502-1.565,1.215-2.068,2.141c-0.501,0.927-0.753,1.979-0.753,3.162c0,1.18,0.251,2.235,0.753,3.158
		c0.502,0.927,1.191,1.639,2.068,2.143c0.875,0.502,1.864,0.754,2.968,0.754C95.831,57.188,96.811,56.937,97.687,56.435"/>
	<path clip-path="url(#SVGID_2_)" fill="#FFFFFF" d="M121.951,51.783h-12.995c0.117,1.614,0.738,2.92,1.86,3.914
		c1.123,0.992,2.54,1.491,4.253,1.491c0.966,0,1.851-0.174,2.658-0.519c0.808-0.344,1.507-0.852,2.098-1.521l1.182,1.36
		c-0.691,0.827-1.552,1.456-2.586,1.89c-1.033,0.434-2.171,0.65-3.41,0.65c-1.596,0-3.008-0.34-4.238-1.021
		c-1.231-0.679-2.191-1.617-2.88-2.819s-1.034-2.56-1.034-4.077c0-1.515,0.33-2.873,0.99-4.076c0.658-1.2,1.564-2.134,2.717-2.804
		c1.15-0.67,2.447-1.006,3.883-1.006c1.438,0,2.728,0.336,3.869,1.006c1.141,0.67,2.038,1.599,2.688,2.79
		c0.648,1.191,0.975,2.556,0.975,4.089L121.951,51.783z M110.683,46.48c-1.013,0.956-1.59,2.2-1.727,3.736h11.016
		c-0.137-1.536-0.714-2.781-1.728-3.736c-1.014-0.955-2.278-1.432-3.795-1.432C112.953,45.049,111.697,45.526,110.683,46.48"/>
	<path clip-path="url(#SVGID_2_)" fill="#FFFFFF" d="M124.419,58.467c-0.377-0.388-0.564-0.857-0.564-1.416
		c0-0.557,0.188-1.021,0.564-1.398c0.375-0.374,0.829-0.562,1.361-0.562c0.53,0,0.992,0.188,1.379,0.562
		c0.387,0.377,0.58,0.842,0.58,1.398c0,0.559-0.193,1.028-0.58,1.416c-0.387,0.387-0.849,0.582-1.379,0.582
		C125.248,59.049,124.794,58.854,124.419,58.467"/>
	<path clip-path="url(#SVGID_2_)" fill="#FFFFFF" d="M144.485,44.235c1.183,0.662,2.109,1.592,2.776,2.792
		c0.669,1.201,1.005,2.57,1.005,4.107c0,1.556-0.336,2.934-1.005,4.134c-0.667,1.202-1.59,2.132-2.762,2.791
		c-1.171,0.66-2.495,0.99-3.972,0.99c-1.261,0-2.397-0.26-3.411-0.782c-1.014-0.523-1.846-1.287-2.495-2.291v8.654h-2.099V43.365
		h2.009v3.07c0.63-1.021,1.462-1.81,2.496-2.36c1.032-0.552,2.2-0.828,3.5-0.828C141.984,43.247,143.305,43.577,144.485,44.235
		 M143.335,56.435c0.886-0.504,1.58-1.216,2.083-2.143c0.502-0.923,0.752-1.979,0.752-3.158c0-1.183-0.25-2.231-0.752-3.147
		c-0.503-0.916-1.197-1.629-2.083-2.14c-0.888-0.512-1.872-0.77-2.954-0.77c-1.104,0-2.092,0.258-2.969,0.77
		c-0.877,0.511-1.564,1.224-2.068,2.14c-0.502,0.916-0.752,1.964-0.752,3.147c0,1.18,0.25,2.235,0.752,3.158
		c0.504,0.927,1.191,1.639,2.068,2.143c0.877,0.502,1.865,0.754,2.969,0.754C141.463,57.188,142.447,56.937,143.335,56.435"/>
	<path clip-path="url(#SVGID_2_)" fill="#FFFFFF" d="M156.759,44.044c0.974-0.532,2.179-0.798,3.618-0.798v2.04l-0.502-0.03
		c-1.637,0-2.915,0.501-3.84,1.505c-0.928,1.005-1.39,2.413-1.39,4.224V58.9h-2.097V43.365h2.009v3.042
		C155.049,45.363,155.783,44.577,156.759,44.044"/>
	<path clip-path="url(#SVGID_2_)" fill="#FFFFFF" d="M177.536,51.783H164.54c0.118,1.614,0.739,2.92,1.86,3.914
		c1.123,0.992,2.541,1.491,4.255,1.491c0.964,0,1.85-0.174,2.657-0.519c0.807-0.344,1.506-0.852,2.098-1.521l1.183,1.36
		c-0.692,0.827-1.553,1.456-2.586,1.89s-2.171,0.65-3.411,0.65c-1.596,0-3.009-0.34-4.238-1.021
		c-1.231-0.679-2.191-1.617-2.881-2.819s-1.033-2.56-1.033-4.077c0-1.515,0.33-2.873,0.99-4.076c0.659-1.2,1.564-2.134,2.718-2.804
		c1.15-0.67,2.444-1.006,3.884-1.006c1.436,0,2.727,0.336,3.868,1.006s2.038,1.599,2.689,2.79c0.647,1.191,0.972,2.556,0.972,4.089
		L177.536,51.783z M166.27,46.48c-1.016,0.956-1.591,2.2-1.729,3.736h11.017c-0.137-1.536-0.713-2.781-1.727-3.736
		c-1.016-0.955-2.28-1.432-3.795-1.432C168.537,45.049,167.283,45.526,166.27,46.48"/>
	<path clip-path="url(#SVGID_2_)" fill="#FFFFFF" d="M182.395,58.502c-1.152-0.363-2.053-0.822-2.702-1.372l0.943-1.656
		c0.65,0.513,1.468,0.932,2.453,1.256c0.984,0.325,2.008,0.487,3.071,0.487c1.418,0,2.467-0.223,3.146-0.666
		c0.679-0.441,1.018-1.066,1.018-1.874c0-0.57-0.186-1.02-0.561-1.344s-0.847-0.57-1.418-0.738c-0.57-0.166-1.329-0.33-2.272-0.485
		c-1.263-0.238-2.276-0.479-3.043-0.725c-0.77-0.247-1.423-0.664-1.964-1.255c-0.543-0.591-0.813-1.408-0.813-2.453
		c0-1.299,0.541-2.364,1.624-3.189c1.083-0.827,2.59-1.241,4.519-1.241c1.005,0,2.009,0.133,3.014,0.399
		c1.002,0.267,1.83,0.614,2.481,1.048l-0.917,1.683c-1.279-0.886-2.804-1.329-4.578-1.329c-1.338,0-2.347,0.237-3.025,0.708
		s-1.02,1.092-1.02,1.859c0,0.593,0.191,1.064,0.575,1.419c0.384,0.355,0.861,0.615,1.433,0.783c0.57,0.166,1.358,0.34,2.362,0.516
		c1.242,0.235,2.236,0.474,2.984,0.709c0.746,0.237,1.388,0.642,1.918,1.21c0.532,0.571,0.799,1.36,0.799,2.364
		c0,1.357-0.567,2.437-1.698,3.233c-1.133,0.797-2.703,1.197-4.712,1.197C184.752,59.049,183.547,58.866,182.395,58.502"/>
	<path clip-path="url(#SVGID_2_)" fill="#FFFFFF" d="M196.837,58.502c-1.151-0.363-2.053-0.822-2.702-1.372l0.945-1.656
		c0.65,0.513,1.466,0.932,2.45,1.256c0.985,0.325,2.01,0.487,3.072,0.487c1.418,0,2.467-0.223,3.146-0.666
		c0.679-0.441,1.02-1.066,1.02-1.874c0-0.57-0.189-1.02-0.561-1.344c-0.376-0.324-0.848-0.57-1.419-0.738
		c-0.572-0.166-1.33-0.33-2.275-0.485c-1.261-0.238-2.273-0.479-3.042-0.725c-0.768-0.247-1.424-0.664-1.964-1.255
		c-0.542-0.591-0.813-1.408-0.813-2.453c0-1.299,0.543-2.364,1.625-3.189c1.082-0.827,2.589-1.241,4.519-1.241
		c1.005,0,2.01,0.133,3.012,0.399c1.005,0.267,1.832,0.614,2.481,1.048l-0.914,1.683c-1.281-0.886-2.808-1.329-4.579-1.329
		c-1.339,0-2.348,0.237-3.027,0.708s-1.019,1.092-1.019,1.859c0,0.593,0.192,1.064,0.576,1.419c0.383,0.355,0.861,0.615,1.433,0.783
		c0.57,0.166,1.358,0.34,2.363,0.516c1.239,0.235,2.233,0.474,2.981,0.709c0.749,0.237,1.388,0.642,1.921,1.21
		c0.531,0.571,0.798,1.36,0.798,2.364c0,1.357-0.566,2.437-1.698,3.233c-1.133,0.797-2.703,1.197-4.713,1.197
		C199.195,59.049,197.989,58.866,196.837,58.502"/>
	<path clip-path="url(#SVGID_2_)" fill="#FFFFFF" d="M213.037,58.028c-1.2-0.679-2.146-1.617-2.835-2.819
		c-0.688-1.202-1.035-2.56-1.035-4.075c0-1.517,0.347-2.875,1.035-4.078c0.689-1.2,1.635-2.135,2.835-2.806
		c1.201-0.668,2.55-1.004,4.048-1.004c1.495,0,2.843,0.336,4.045,1.004c1.201,0.671,2.141,1.605,2.82,2.806
		c0.679,1.203,1.019,2.561,1.019,4.078c0,1.516-0.34,2.873-1.019,4.075c-0.68,1.202-1.619,2.141-2.82,2.819
		c-1.202,0.681-2.55,1.021-4.045,1.021C215.587,59.049,214.238,58.709,213.037,58.028 M220.052,56.435
		c0.876-0.504,1.56-1.216,2.054-2.143c0.491-0.923,0.738-1.979,0.738-3.158c0-1.183-0.247-2.235-0.738-3.162
		c-0.494-0.926-1.178-1.639-2.054-2.141c-0.876-0.503-1.866-0.754-2.967-0.754c-1.105,0-2.093,0.251-2.97,0.754
		c-0.875,0.502-1.565,1.215-2.068,2.141c-0.501,0.927-0.753,1.979-0.753,3.162c0,1.18,0.252,2.235,0.753,3.158
		c0.503,0.927,1.193,1.639,2.068,2.143c0.877,0.502,1.864,0.754,2.97,0.754C218.186,57.188,219.176,56.937,220.052,56.435"/>
</g>
</svg>
